<svg id="katman_1" data-name="katman 1" xmlns="http://www.w3.org/2000/svg" viewBox="0 0 185.67 185.68"><defs><style>.cls-1{fill:#40b071;}</style></defs><title>profile cópia</title><path class="cls-1" d="M44.82.79A44.82,44.82,0,1,0,89.65,45.61,44.82,44.82,0,0,0,44.82.79Zm0,13.4A14.83,14.83,0,1,1,30,29,14.83,14.83,0,0,1,44.82,14.19Zm0,64.52a32.88,32.88,0,0,1-21.42-7.9A6.34,6.34,0,0,1,21.18,66a15,15,0,0,1,15-15H53.45a14.93,14.93,0,0,1,15,15,6.32,6.32,0,0,1-2.21,4.8A32.88,32.88,0,0,1,44.81,78.71Z"/><path class="cls-1" d="M140.85.79a44.82,44.82,0,1,0,44.82,44.82A44.82,44.82,0,0,0,140.85.79Zm0,13.4A14.83,14.83,0,1,1,126,29,14.82,14.82,0,0,1,140.85,14.19Zm0,64.52a32.86,32.86,0,0,1-21.42-7.9A6.31,6.31,0,0,1,117.2,66a15,15,0,0,1,15-15h17.25a14.93,14.93,0,0,1,15,15,6.29,6.29,0,0,1-2.21,4.8A32.86,32.86,0,0,1,140.84,78.71Z"/><path class="cls-1" d="M44.82,96a44.82,44.82,0,1,0,44.82,44.82A44.82,44.82,0,0,0,44.82,96Zm0,13.4A14.83,14.83,0,1,1,30,124.27,14.83,14.83,0,0,1,44.82,109.44Zm0,64.52a32.9,32.9,0,0,1-21.42-7.89,6.35,6.35,0,0,1-2.22-4.81,15,15,0,0,1,15-14.94H53.45a14.92,14.92,0,0,1,15,14.94,6.3,6.3,0,0,1-2.22,4.8A32.84,32.84,0,0,1,44.81,174Z"/><path class="cls-1" d="M140.84,96a44.82,44.82,0,1,0,44.83,44.82A44.82,44.82,0,0,0,140.84,96Zm0,13.4A14.83,14.83,0,1,1,126,124.27,14.82,14.82,0,0,1,140.84,109.44Zm0,64.52a32.92,32.92,0,0,1-21.42-7.89,6.34,6.34,0,0,1-2.21-4.81,15,15,0,0,1,15-14.94h17.25a14.92,14.92,0,0,1,15,14.94,6.29,6.29,0,0,1-2.21,4.8A32.86,32.86,0,0,1,140.83,174Z"/></svg>