<svg id="katman_1" data-name="katman 1" xmlns="http://www.w3.org/2000/svg" viewBox="0 0 217.27 164.36"><defs><style>.cls-1{fill:#40b071;}</style></defs><title>community</title><path class="cls-1" d="M108.55,0A46.4,46.4,0,1,0,155,46.38,46.39,46.39,0,0,0,108.55,0Zm0,13.87A15.35,15.35,0,1,1,93.21,29.2,15.35,15.35,0,0,1,108.55,13.85Zm0,66.79a34,34,0,0,1-22.17-8.18,6.51,6.51,0,0,1-2.29-5A15.47,15.47,0,0,1,99.63,52h17.85A15.46,15.46,0,0,1,133,67.49a6.5,6.5,0,0,1-2.29,5A34,34,0,0,1,108.54,80.64Z"/><path class="cls-1" d="M46.4,71.59A46.39,46.39,0,1,0,92.79,118,46.4,46.4,0,0,0,46.4,71.59Zm0,13.87A15.35,15.35,0,1,1,31.05,100.8,15.34,15.34,0,0,1,46.4,85.46Zm0,66.78a34.05,34.05,0,0,1-22.18-8.17,6.55,6.55,0,0,1-2.29-5,15.47,15.47,0,0,1,15.55-15.47H55.33A15.44,15.44,0,0,1,70.85,139.1a6.51,6.51,0,0,1-2.29,5A34,34,0,0,1,46.39,152.24Z"/><path class="cls-1" d="M170.71,71.59A46.39,46.39,0,1,0,217.11,118,46.4,46.4,0,0,0,170.71,71.59Zm0,13.87a15.35,15.35,0,1,1-15.34,15.34A15.34,15.34,0,0,1,170.71,85.46Zm0,66.78a34,34,0,0,1-22.17-8.17,6.52,6.52,0,0,1-2.3-5,15.47,15.47,0,0,1,15.55-15.47h17.86a15.45,15.45,0,0,1,15.53,15.47,6.52,6.52,0,0,1-2.3,5A34,34,0,0,1,170.7,152.24Z"/></svg>