<svg id="katman_1" data-name="katman 1" xmlns="http://www.w3.org/2000/svg" viewBox="0 0 150.07 149.99"><defs><style>.cls-1{fill:#40b071;}</style></defs><title>edit_profile</title><path class="cls-1" d="M146.35,61,133,59.44A59.9,59.9,0,0,0,127,45l8.33-10.58a4.34,4.34,0,0,0-.35-5.6L121.2,15.05a4.35,4.35,0,0,0-5.6-.34L105,23A59.16,59.16,0,0,0,90.63,17.1L89,3.72A4.35,4.35,0,0,0,84.83,0H65.32a4.33,4.33,0,0,0-4.2,3.72L59.51,17.1a59.73,59.73,0,0,0-14.38,5.95L34.54,14.73a4.36,4.36,0,0,0-5.6.33L15.14,28.87a4.35,4.35,0,0,0-.32,5.6l8.31,10.59a59.14,59.14,0,0,0-5.94,14.39L3.81,61.06a4.34,4.34,0,0,0-3.73,4.2V84.77A4.35,4.35,0,0,0,3.81,89l13.38,1.61a59.59,59.59,0,0,0,5.95,14.37l-8.32,10.6a4.35,4.35,0,0,0,.35,5.6L28.94,135a4.36,4.36,0,0,0,5.6.34L45.13,127a58.91,58.91,0,0,0,14.39,5.94l1.61,13.38A4.33,4.33,0,0,0,65.32,150H84.83a4.33,4.33,0,0,0,4.2-3.72l1.6-13.38A59.37,59.37,0,0,0,105,127l10.59,8.32a4.35,4.35,0,0,0,5.6-.34l13.8-13.8a4.35,4.35,0,0,0,.33-5.61L127,104.94a59.45,59.45,0,0,0,6-14.38L146.34,89a4.33,4.33,0,0,0,3.73-4.2V65.24A4.32,4.32,0,0,0,146.35,61ZM75.08,112.49A37.5,37.5,0,1,1,112.58,75,37.49,37.49,0,0,1,75.08,112.49Z"/></svg>