<svg id="katman_1" data-name="katman 1" xmlns="http://www.w3.org/2000/svg" viewBox="0 0 866.86 291.84"><defs><style>.cls-1{fill:#404145;}.cls-2{fill:#40b071;}</style></defs><title>logo_community</title><g id="fiverr_logo_nav" data-name="fiverr logo nav"><path class="cls-1" d="M813.72,93.06H791.93c-14,0-21.78,10.55-21.78,28.82v65.36H728V93.06H710.41c-14,0-21.79,10.55-21.79,28.82v65.36H646.46V57.93h42.16V77.6c7-15.46,16.17-19.67,30.22-19.67h51.31V77.6c7-15.46,16.16-19.67,30.22-19.67h14Zm-177.1,39.36H549.47c2.11,14.76,11.25,22.49,26,22.49,11.24,0,19-4.92,21.78-12.65l37.25,10.54c-9.14,22.49-31.63,35.84-59,35.84-45.68,0-66.77-35.84-66.77-66.76,0-30.22,18.27-66.06,64-66.06,48.49,0,64.65,36.54,64.65,64C637.32,126.1,637.32,129.61,636.62,132.42Zm-40.06-24.6c-.7-11.24-9.14-21.08-23.19-21.08-13.35,0-21.09,5.62-23.9,21.08ZM435.62,187.24h36.55L518.55,58.63H476.38l-22.49,75.2-22.48-75.9H389.24Zm-171.48,0h41.47V93.06h40.06v94.18h41.46V57.93H305.61V50.19c0-8.43,6.32-14,15.46-14h24.6V1H314.74c-30.22,0-50.6,19-50.6,46.38V57.93H240.25V93.06h23.89Z"/></g><g id="fiverr_logo_nav_dot" data-name="fiverr logo nav dot"><path class="cls-2" d="M839.72,190.75a26,26,0,1,0-26-26A26.41,26.41,0,0,0,839.72,190.75Z"/></g><path class="cls-2" d="M40.12,110.13v77.28H1V7.93H40.12V74.24H118.9V7.93H158V187.41H118.9V110.13Z"/><path class="cls-2" d="M186.71,26.13c0-10.47,8.72-19.45,21.93-19.45,11.47,0,20.19,9,20.19,19.45,0,12-8.72,20.94-20.19,20.94C195.43,47.07,186.71,38.09,186.71,26.13Zm1.74,161.28V55.54h38.64V187.41Z"/><path class="cls-1" d="M468.25,244.32a5.85,5.85,0,0,0-6.16-4.83c-3.81,0-7.42,3.56-7.42,9.27,0,6,3.68,9.07,7.36,9.07,3.36,0,5.52-1.52,6.28-4.63h9.77c-.82,8.44-7.36,13.2-16.11,13.2-9,0-17.14-6.09-17.14-17.45,0-10.85,7.68-18,16.88-18s15.61,4.83,16.31,13.4Z"/><path class="cls-1" d="M499.34,230.92c9.65,0,17.26,6.54,17.26,17.77S509,266.4,499.34,266.4,482,259.93,482,248.69,489.7,230.92,499.34,230.92Zm0,27.1c3.94,0,7.43-2.79,7.43-9.33s-3.49-9.32-7.43-9.32-7.49,2.92-7.49,9.32S495.47,258,499.34,258Z"/><path class="cls-1" d="M572.32,241.9v23.55h-9.83V245.08c0-3.49-1.85-5.52-4.7-5.52-3.3,0-5.65,2.92-5.65,7.8v18.09H542.3V245.08c0-3.43-1.9-5.52-4.69-5.52-3.3,0-5.65,2.92-5.65,7.8v18.09h-9.77V231.88H532v4.57a12.46,12.46,0,0,1,10.66-5.53,7.56,7.56,0,0,1,7.49,6c1.59-3,5.33-6,11.11-6C568.2,230.92,572.32,235,572.32,241.9Z"/><path class="cls-1" d="M629.56,241.9v23.55h-9.84V245.08c0-3.49-1.84-5.52-4.69-5.52-3.3,0-5.65,2.92-5.65,7.8v18.09h-9.84V245.08c0-3.43-1.9-5.52-4.69-5.52-3.3,0-5.65,2.92-5.65,7.8v18.09h-9.77V231.88h9.77v4.57a12.46,12.46,0,0,1,10.66-5.53,7.56,7.56,0,0,1,7.49,6c1.59-3,5.33-6,11.11-6C625.44,230.92,629.56,235,629.56,241.9Z"/><path class="cls-1" d="M657.8,231.88h9.83v33.57H657.8v-3.94c-1.52,2.1-4.57,4.89-10.35,4.89-7,0-11-5.52-11-12.31V231.88h9.84v20c0,3.23,1.58,6,4.89,6,3.93,0,6.66-3.42,6.66-8.12Z"/><path class="cls-1" d="M706.6,243.17v22.28h-9.84v-20c0-3.3-1.9-6-5.2-6-3.94,0-7,3.49-7,8.19v17.83h-9.84V231.88h9.84v3.87c1.52-2,4.88-4.83,10.66-4.83C702.28,230.92,706.6,236.45,706.6,243.17Z"/><path class="cls-1" d="M713.26,224.39c0-2.67,2.22-4.95,5.59-4.95a5,5,0,0,1,5.14,4.95,5.13,5.13,0,0,1-5.14,5.33A5.24,5.24,0,0,1,713.26,224.39Zm.45,41.06V231.88h9.83v33.57Z"/><path class="cls-1" d="M752.86,257.26v7.68a19.38,19.38,0,0,1-5.78.83c-7.55,0-12.62-3-12.62-12.57V239.56h-6.41v-7.68h6.41v-6.16l9.83-4.95v11.11h7.87v7.68h-7.87v13.77c0,3,1.91,4.44,4.64,4.44A16,16,0,0,0,752.86,257.26Z"/><path class="cls-1" d="M781.1,231.88H791l-17.52,46.58h-10l5.39-14.22-13.71-32.36h10.73l7.61,20.05Z"/></svg>