<svg id="katman_1" data-name="katman 1" xmlns="http://www.w3.org/2000/svg" viewBox="0 0 185.67 185.68"><defs><style>.cls-1{fill:#40b071;}</style></defs><title>profile</title><path class="cls-1" d="M92.82,0a92.81,92.81,0,1,0,92.82,92.81A92.82,92.82,0,0,0,92.82,0Zm0,27.76A30.7,30.7,0,1,1,62.13,58.47,30.7,30.7,0,0,1,92.82,27.78Zm0,133.6A68.09,68.09,0,0,1,48.45,145a13.07,13.07,0,0,1-4.59-9.94,31,31,0,0,1,31.11-31h35.72a30.91,30.91,0,0,1,31.06,31,13.05,13.05,0,0,1-4.59,9.94A68.08,68.08,0,0,1,92.8,161.38Z"/></svg>