<svg id="katman_1" data-name="katman 1" xmlns="http://www.w3.org/2000/svg" viewBox="0 0 150.07 149.99"><defs><style>.cls-1{fill:#40b071;}.cls-2{fill:#fff;}</style></defs><title>upload_image</title><circle class="cls-1" cx="75.37" cy="75.29" r="74.7"/><path class="cls-2" d="M26.32,48.09V60.27c0,2.14,1.14,3.51,3.26,3.51s3.26-1.37,3.26-3.51V48.09h3.62V60.37c0,4.22-2.48,6.73-6.88,6.73s-6.88-2.51-6.88-6.73V48.09Z"/><path class="cls-2" d="M55.08,53.75c0,3.93-2.66,5.66-6.31,5.66h-5v7.3H40.13V48.09h8.74C52.42,48.09,55.08,49.84,55.08,53.75ZM48.3,56.44c1.79,0,3.08-.8,3.08-2.59s-1.29-2.69-3-2.69H43.75v5.28Z"/><path class="cls-2" d="M57.67,48.09h3.62V63.4h8.35v3.31h-12Z"/><path class="cls-2" d="M80.35,67.1c-5.56,0-9.52-3.81-9.52-9.7s4-9.7,9.52-9.7,9.49,3.77,9.49,9.7S85.83,67.1,80.35,67.1Zm0-3.32c3.52,0,5.79-2.53,5.79-6.38S83.87,51,80.35,51s-5.79,2.53-5.79,6.39S76.81,63.78,80.35,63.78Z"/><path class="cls-2" d="M105.88,66.71l-2.07-5.23H96.38l-2.09,5.23h-4l7.84-18.62h3.91l7.78,18.62Zm-8.33-8.1h5.12l-2.56-6.39Z"/><path class="cls-2" d="M112.08,48.09h7.4c5.64,0,9.18,3.46,9.18,9.36s-3.54,9.26-9.18,9.26h-7.4Zm3.63,15.31h3.77c3,0,5.46-1.87,5.46-5.9s-2.48-6.1-5.46-6.1h-3.77Z"/><path class="cls-2" d="M33.8,79.12h3.62V97.74H33.8Z"/><path class="cls-2" d="M56.71,79.12h5V97.74H58.26V83.44l-5.4,11.72H50L44.55,83.39V97.74H41.14V79.12h5l5.3,11.69Z"/><path class="cls-2" d="M79.39,97.74l-2.07-5.22H69.9l-2.09,5.22h-4l7.84-18.62h3.9l7.79,18.62Zm-8.32-8.09h5.12l-2.56-6.39Z"/><path class="cls-2" d="M93.1,91.25v-3h8.38v9.46H98.79l-.23-2.25c-.73,1.37-2.8,2.64-5.46,2.64-5.43,0-9.21-3.75-9.21-9.62,0-5.51,3.88-9.78,9.47-9.78,4,0,7.6,2,8.25,6.34H97.89c-.55-1.91-2.23-2.92-4.48-2.92-3.65,0-5.79,2.82-5.79,6.41s1.86,6.26,5.74,6.26c2.69,0,4.68-1.52,4.86-3.57Z"/><path class="cls-2" d="M105,79.12h12.34V82.2h-8.72v4.5h6.42v3h-6.42v5h8.93v3.07H105Z"/></svg>